<?xml version="1.0" encoding="UTF-8" standalone="no"?>
<!-- Created with Inkscape (http://www.inkscape.org/) -->

<svg
   width="40"
   height="40"
   viewBox="0 0 40 40"
   version="1.1"
   id="svg1"
   xml:space="preserve"
   sodipodi:docname="llave.svg"
   inkscape:version="1.3 (0e150ed6c4, 2023-07-21)"
   xmlns:inkscape="http://www.inkscape.org/namespaces/inkscape"
   xmlns:sodipodi="http://sodipodi.sourceforge.net/DTD/sodipodi-0.dtd"
   xmlns="http://www.w3.org/2000/svg"
   xmlns:svg="http://www.w3.org/2000/svg"><sodipodi:namedview
     id="namedview1"
     pagecolor="#ffffff"
     bordercolor="#000000"
     borderopacity="0.25"
     inkscape:showpageshadow="2"
     inkscape:pageopacity="0.0"
     inkscape:pagecheckerboard="0"
     inkscape:deskcolor="#d1d1d1"
     inkscape:document-units="px"
     inkscape:zoom="11.575"
     inkscape:cx="20"
     inkscape:cy="20"
     inkscape:window-width="1280"
     inkscape:window-height="961"
     inkscape:window-x="-8"
     inkscape:window-y="-8"
     inkscape:window-maximized="1"
     inkscape:current-layer="layer1" /><defs
     id="defs1"><clipPath
       id="clip-0"><path
         clip-rule="nonzero"
         d="M 0,0 H 137 V 137 H 0 Z m 0,0"
         id="path2" /></clipPath></defs><g
     inkscape:label="Capa 1"
     inkscape:groupmode="layer"
     id="layer1"
     transform="translate(-132.66604,-183.06518)"><g
       id="g1"
       transform="matrix(0.35280345,0,0,0.35277756,128.58816,178.9877)"
       style="stroke:#001b15;stroke-opacity:0.93173432"><g
         clip-path="url(#clip-0)"
         id="g11"
         style="stroke:#001b15;stroke-opacity:0.93173432"><path
           fill="none"
           stroke-width="12.56"
           stroke-linecap="butt"
           stroke-linejoin="miter"
           stroke="#82b366"
           stroke-opacity="1"
           stroke-miterlimit="10"
           d="M 49.419055,44.389059 132.06961,137.08917"
           transform="matrix(0.748634,0,0,0.748634,0.374317,0.374317)"
           id="path7"
           style="stroke:#001b15;stroke-opacity:0.93173432" /><path
           fill="none"
           stroke-width="12.56"
           stroke-linecap="butt"
           stroke-linejoin="miter"
           stroke="#82b366"
           stroke-opacity="1"
           stroke-miterlimit="10"
           d="M 36.30141,133.73931 143.08968,46.350966"
           transform="matrix(0.748634,0,0,0.748634,0.374317,0.374317)"
           id="path9"
           style="stroke:#001b15;stroke-opacity:0.93173432" /></g><path
         fill-rule="nonzero"
         fill="#d5e8d4"
         fill-opacity="1"
         stroke-width="1.4"
         stroke-linecap="butt"
         stroke-linejoin="miter"
         stroke="#82b366"
         stroke-opacity="1"
         stroke-miterlimit="10"
         d="m 20.941863,90.74088 c 0,-38.549387 31.24963,-69.799017 69.799017,-69.799017 18.51811,0 36.26919,7.346715 49.36075,20.448706 13.08633,13.091555 20.43827,30.837422 20.43827,49.350311 0,18.51811 -7.35194,36.26919 -20.43827,49.36075 -13.09156,13.08633 -30.84264,20.43827 -49.36075,20.43827 -38.549387,0 -69.799017,-31.24963 -69.799017,-69.79902 z M 90.74088,30.292228 c -33.378509,0 -60.448652,27.070143 -60.448652,60.448652 0,33.38894 27.070143,60.44865 60.448652,60.44865 33.38894,0 60.44865,-27.05971 60.44865,-60.44865 0,-33.378509 -27.05971,-60.448652 -60.44865,-60.448652 z m 0,0"
         transform="matrix(0,-0.748634,-0.748634,0,136.23638,136.23638)"
         id="path13"
         style="stroke:#001b15;stroke-opacity:0.93173432" /><path
         fill-rule="nonzero"
         fill="#d5e8d4"
         fill-opacity="1"
         stroke-width="1.4"
         stroke-linecap="butt"
         stroke-linejoin="miter"
         stroke="#82b366"
         stroke-opacity="1"
         stroke-miterlimit="4"
         d="m 111.6783,90.739113 c 0,1.377509 -0.13045,2.739365 -0.40178,4.085567 -0.26611,1.35142 -0.66266,2.661097 -1.18966,3.929032 -0.52701,1.267938 -1.17402,2.478478 -1.93582,3.621178 -0.76181,1.14271 -1.63319,2.20193 -2.6037,3.17245 -0.97052,0.97051 -2.02974,1.84189 -3.17245,2.6037 -1.1427,0.7618 -2.35324,1.40881 -3.621178,1.93582 -1.267935,0.527 -2.577612,0.92355 -3.929032,1.18966 -1.346202,0.27133 -2.708058,0.40178 -4.085567,0.40178 -1.372291,0 -2.734147,-0.13045 -4.085567,-0.40178 -1.346202,-0.26611 -2.65588,-0.66266 -3.929032,-1.18966 -1.267935,-0.52701 -2.473255,-1.17402 -3.615962,-1.93582 -1.147924,-0.76181 -2.201927,-1.63319 -3.177663,-2.6037 -0.970518,-0.97052 -1.836679,-2.02974 -2.603701,-3.17245 -0.761804,-1.1427 -1.408816,-2.35324 -1.935818,-3.621178 -0.521784,-1.267935 -0.923557,-2.577612 -1.189667,-3.929032 -0.26611,-1.346202 -0.401773,-2.708058 -0.401773,-4.085567 0,-1.372291 0.135663,-2.734147 0.401773,-4.085567 0.26611,-1.346202 0.667883,-2.65588 1.189667,-3.929032 0.527002,-1.267935 1.174014,-2.473255 1.935818,-3.615962 0.767022,-1.147924 1.633183,-2.201927 2.603701,-3.177663 0.975736,-0.970518 2.029739,-1.836679 3.177663,-2.603701 1.142707,-0.761804 2.348027,-1.408816 3.615962,-1.935818 1.273152,-0.521784 2.58283,-0.923557 3.929032,-1.189667 1.35142,-0.26611 2.713276,-0.401773 4.085567,-0.401773 1.377509,0 2.739365,0.135663 4.085567,0.401773 1.35142,0.26611 2.661097,0.667883 3.929032,1.189667 1.267938,0.527002 2.478478,1.174014 3.621178,1.935818 1.14271,0.767022 2.20193,1.633183 3.17245,2.603701 0.97051,0.975736 1.84189,2.029739 2.6037,3.177663 0.7618,1.142707 1.40881,2.348027 1.93582,3.615962 0.527,1.273152 0.92355,2.58283 1.18966,3.929032 0.27133,1.35142 0.40178,2.713276 0.40178,4.085567 z m 0,0"
         transform="matrix(0.748634,0,0,0.748634,0.374317,0.374317)"
         id="path15"
         style="stroke:#001b15;stroke-opacity:0.93173432" /></g></g></svg>
