<?xml version="1.0" encoding="utf-8"?>
<!-- Svg Vector Icons : http://www.onlinewebfonts.com/icon -->
<!DOCTYPE svg PUBLIC "-//W3C//DTD SVG 1.1//EN" "http://www.w3.org/Graphics/SVG/1.1/DTD/svg11.dtd">
<svg version="1.1" xmlns="http://www.w3.org/2000/svg" xmlns:xlink="http://www.w3.org/1999/xlink" x="0px" y="0px"
  viewBox="0 0 256 256" enable-background="new 0 0 256 256" xml:space="preserve">
  <metadata> Svg Vector Icons : http://www.onlinewebfonts.com/icon </metadata>
  <g>
    <g>
      <path fill="#000000"
        d="M245.7,119c-1.2-15.7-5.5-30.9-12.8-45.1c-7.3-14.2-17.1-26.5-29.3-36.6c-11.7-9.8-25-17.1-39.7-21.7c-14.6-4.7-29.7-6.5-44.9-5.3c-15.7,1.2-30.9,5.5-45.1,12.8c-14.2,7.3-26.5,17.1-36.6,29.3c-9.8,11.7-17.1,25.1-21.7,39.7c-4.7,14.6-6.5,29.7-5.3,44.9c1.2,15.7,5.5,30.9,12.8,45.1c7.3,14.2,17.1,26.5,29.3,36.6c11.7,9.8,25,17.1,39.6,21.7c14.6,4.7,29.7,6.5,44.9,5.3c15.7-1.2,30.9-5.5,45.1-12.8c14.2-7.3,26.5-17.1,36.6-29.3c9.8-11.7,17.1-25,21.7-39.6C245,149.4,246.8,134.2,245.7,119z M138.4,36.5c1.1-4.9,8.4-10.1,9.7-9.8c3.3,0.9,2.9,0.4,5.9,2.2c4.3,2.7,6,6.4,8,7.2c4.7,1.8,8.3-0.3,9.8,0.1c2.9,0.7,3.9,2.4,6.2,5.6c1.6,2.3,2.7,3.7,4.6,5.3c2.2,1.9,4.2,2.8,7.1,3.1c5.3,0.6,7.9,8.4,7.9,10.2c0,2.1,4.2,5.6,6.1,6.5c0.7,0.4,10.3,1.5,8.4,11.1c-0.5,2.4-2,7.7-9.5,11.2c0,0-50.2,16.7-53.6,18.6l-11.3-9.6C136.4,76.9,134.7,53.1,138.4,36.5z M118.8,118.6h15.4v14.8h-15.4V118.6z M40.6,74.4c2.7-5.9,3.8-4.7,6.2-6.5c1-0.7,2.6-0.9,4.9-2.1c5.6-3,3.9-6.9,4.9-9.8c0.6-1.7,2.3-3.7,6.5-5c1.8-0.6,5.2-1.5,6.7-2.6c1.4-1,4.8-2.6,6.1-6.3c0,0,0.7-1.8,4.4-3.6c3.3-1.6,5.8-1.3,8.1-0.8c0,0,2.7,0,5.3-1.5c2.2-1.3,3.1-3.5,5.3-5.5c0.5-0.5,4.2-5.2,10.7-0.8c6.4,3.3,7.3,11.6,7.6,12.1c0,0,0.7,56.3,0.7,56.6l-12.6,7.9c0,0-27-6.6-43.8-13c-6.2-2.4-10.9-4.5-12.3-5.3C43.6,86.5,39.8,76,40.6,74.4z M54,194.5c-0.4-0.1-4.6-5.1-4.6-8.5c0-2.8-0.3-10.6-8.3-12.5c-1.5-0.4-2.4-4.4-2.6-6.4c-0.2-2.9,0.7-4.2-0.4-7.9c-1.6-5.9-3.2-7.2-4-8.1c-1.3-1.3-4-5.6-0.2-13.2c0.2-0.4,1.9-3.3-0.6-8.1c-2.1-4.1-3.9-4.6-3.7-10.1c1.8-5.3,7.4-7.2,8-7.5c7.1-2.7,17.9,1.9,13.3,0.7c-0.4-0.1,30.3,9.4,30.3,9.4c2.1,0.3,17.9,5.5,19.9,6.2l3.6,14.4c0,0-10.5,16.5-13,19.7c-2.5,3.2-14.2,20.2-17,23C69.4,191,65.6,196.9,54,194.5z M177.2,210.1c-0.3,1.5-1,5.3-2,5.9c-5.8,3.3-11.1,1.5-11.1,1.5s-4.2-1.6-8.3,0.9c-3,1.9-3.9,4.1-3.9,4.1s-3.5,2.2-10,0.2c-5.1-1.6-12.3-0.8-13.7,1c-2.1,2.6-11-0.9-12.6-3c0,0-4-3.4-12-0.2c-2.5,1-8.5,0.5-10.1-4.2c-0.2-0.6-2.7-4-1.7-9.8c0.9-5,4.5-9.3,4.5-9.3l27.3-43.7l14.9,0.2c0,0,19.6,21.5,25.4,29.3c2.7,3.7,9.5,12.5,11.5,16.4C177.6,203.8,177.8,206.9,177.2,210.1z M226.7,141.7c0,0-4.6,9.1-2.4,12.8c1.4,2.4-2.8,10.5-6.1,11.6c-1.8,0.6-3.5,5.5-3.5,5.5l-0.1,7.9c0,0-0.8,5.3-6.8,6.6c-8.7,1.9-14.5-4.5-14.5-4.5l-38-41.5l4.2-14.3c0,0,44.1-23.2,57.8-24.3c0,0,6.6,0,12,5.3c2.4,2.4-1.1,11.3-1.1,11.3s-4.4,5.1,1.3,13C231.7,134.1,226.7,141.7,226.7,141.7z" />
    </g>
  </g>
</svg>